<svg xmlns="http://www.w3.org/2000/svg" viewBox="0 0 512 512" role="img" aria-hidden="true">
  <path fill="#0b67c2" d="M139.5 33.9C151.7 28 165.8 33.5 171.5 45l60.2 125c5.7 11.5 2 25.4-8.7 33.5l-41.2 31.4c8.7 22.5 32.5 57 61.8 86.2 31.4 31.2 67 52.4 90.5 62.5l33.6-34c8.8-8.9 22.4-12 34.3-7l118.7 49.2c12 5 18.4 18.4 14.6 30.8l-33.8 107.2c-3.7 11.9-14.5 19.9-26.9 19.6-107.1-2.3-197.1-41.6-271.4-115.7C120.4 371.6 77.9 281 74.5 174.8c-.4-12.3 6.8-23.6 17.9-28.8l47.1-22.1c11.6-5.5 17-18.9 11.6-30.6L131.8 53c-5.5-11.7-.4-25.7 11.7-31.4Z"/>
</svg>
