<svg xmlns="http://www.w3.org/2000/svg" viewBox="0 0 512 512" role="img" aria-hidden="true">
  <path fill="#25d366" d="M256 15.9C123.6 15.9 16 123.5 16 255.9c0 42.4 11 84 31.9 120.6L20 492l119.1-27.4c34.2 18.7 72.7 28.5 116.9 28.5 132.4 0 240-107.6 240-240S388.4 15.9 256 15.9Z"/>
  <path fill="#fff" d="M356 306.7c-2.2-3.7-8-6-16.7-10.5-8.7-4.5-51.7-25.5-59.8-28.4-8.1-3-14-4.5-19.8 4.5-5.8 9-22.7 28.3-27.8 33.9-5.1 5.6-10.2 6.4-18.9 2.2-8.7-4.3-36.7-13.6-69.9-43.5-25.8-23-43.2-51.4-48.3-60.2-5.1-8.7-.1-13.4 3.8-17.6 4-4.1 8.7-10.2 13.1-15.3 4.3-5.1 5.8-8.7 8.7-14.4 2.9-5.8 1.4-10.8-.7-15.3-2.2-4.5-19.8-47.9-27.1-65.6-7.1-17.1-14.4-14.8-19.8-15.1-5.1-.3-10.8-.3-16.6-.3-5.8 0-15.3 2.2-23.4 10.8-8.1 8.7-31.7 31-31.7 75.7 0 44.7 32.5 87.9 37.1 94 4.5 6.1 63.8 97.4 154.7 136.6 21.6 9.4 38.4 15 51.5 19.2 21.6 6.9 41.3 5.9 56.9 3.6 17.4-2.6 51.7-21.1 59-41.5 7.3-20.5 7.3-38.1 5.1-41.8Z"/>
</svg>
